# xmcd
#
# Track frame offsets:
#	150
#	14040
#	28335
#	47737
#	62807
#	81429
#	99410
#	116367
#	134260
#	145462
#	165207
#
# Disc length: 2362 seconds
#
# Revision: 0
# Processed by: cddbd v1.5PL3 Copyright (c) Steve Scherf et al.
# Submitted via: dBpowerAMP V4.0
#
DISCID=9609380b
DTITLE=Big Kat Kaylor - Scattered
DYEAR=1996
DGENRE=Blues
TTITLE0=I'm Scattered
TTITLE1=Every Day Above Ground
TTITLE2=Blind Eddie's Hideaway
TTITLE3=Still A Man
TTITLE4=Somebody's Waiting To Fill Your Shoes
TTITLE5=She's Looking Good
TTITLE6=Bar Room Blues
TTITLE7=On The Right Track
TTITLE8=Set Me Down Easy
TTITLE9=Here In The Doghouse
TTITLE10=Hard To Take It Alone
EXTD=
EXTT0=
EXTT1=
EXTT2=
EXTT3=
EXTT4=
EXTT5=
EXTT6=
EXTT7=
EXTT8=
EXTT9=
EXTT10=
PLAYORDER=
